<mxfile host="Electron" modified="2023-05-18T15:39:13.880Z" agent="Mozilla/5.0 (Windows NT 10.0; Win64; x64) AppleWebKit/537.36 (KHTML, like Gecko) draw.io/21.2.8 Chrome/112.0.5615.165 Electron/24.2.0 Safari/537.36" etag="DtoX_NOrH1D5pwCp8D5y" version="21.2.8" type="device">
  <diagram id="p1WFtV5cTaJLbCV86L4F" name="Page-1">
    <mxGraphModel dx="1276" dy="614" grid="1" gridSize="10" guides="1" tooltips="1" connect="1" arrows="1" fold="1" page="1" pageScale="1" pageWidth="1169" pageHeight="827" math="0" shadow="0">
      <root>
        <mxCell id="0" />
        <mxCell id="1" parent="0" />
        <mxCell id="rrxrWV5JKAd1Jxnc8wNa-39" value="" style="group" parent="1" vertex="1" connectable="0">
          <mxGeometry x="130" y="150" width="930" height="410" as="geometry" />
        </mxCell>
        <mxCell id="rrxrWV5JKAd1Jxnc8wNa-6" value=":user.php" style="shape=umlLifeline;perimeter=lifelinePerimeter;whiteSpace=wrap;html=1;container=0;collapsible=0;recursiveResize=0;outlineConnect=0;" parent="rrxrWV5JKAd1Jxnc8wNa-39" vertex="1">
          <mxGeometry x="622.6409104831015" width="150.56751381215471" height="410" as="geometry" />
        </mxCell>
        <mxCell id="BHGGA8FH1MstIcf6RSHf-37" value="$_SESSION[&#39;successStatus&#39;]" style="html=1;verticalAlign=bottom;endArrow=open;dashed=1;endSize=8;rounded=0;elbow=vertical;entryX=1.079;entryY=0.094;entryDx=0;entryDy=0;entryPerimeter=0;exitX=-0.087;exitY=1.029;exitDx=0;exitDy=0;exitPerimeter=0;" parent="rrxrWV5JKAd1Jxnc8wNa-39" source="rrxrWV5JKAd1Jxnc8wNa-1" target="rrxrWV5JKAd1Jxnc8wNa-36" edge="1">
          <mxGeometry x="0.0035" relative="1" as="geometry">
            <mxPoint x="542.585635359116" y="205" as="sourcePoint" />
            <mxPoint x="303.1491712707182" y="205.72000000000003" as="targetPoint" />
            <mxPoint as="offset" />
            <Array as="points">
              <mxPoint x="532.9047619047617" y="205.3523424494649" />
            </Array>
          </mxGeometry>
        </mxCell>
        <mxCell id="rrxrWV5JKAd1Jxnc8wNa-1" value="" style="html=1;points=[];perimeter=orthogonalPerimeter;container=0;" parent="rrxrWV5JKAd1Jxnc8wNa-39" vertex="1">
          <mxGeometry x="690.5401264788918" y="147.43960591132995" width="14.761904761904757" height="55.172413793103445" as="geometry" />
        </mxCell>
        <mxCell id="BHGGA8FH1MstIcf6RSHf-21" value="press confirm button" style="html=1;verticalAlign=bottom;endArrow=block;rounded=0;elbow=vertical;entryX=-0.1;entryY=0.007;entryDx=0;entryDy=0;entryPerimeter=0;" parent="rrxrWV5JKAd1Jxnc8wNa-39" edge="1">
          <mxGeometry width="80" relative="1" as="geometry">
            <mxPoint x="77.0718232044199" y="83" as="sourcePoint" />
            <mxPoint x="278.99999999999994" y="82.76195005945307" as="targetPoint" />
            <mxPoint as="offset" />
          </mxGeometry>
        </mxCell>
        <mxCell id="rrxrWV5JKAd1Jxnc8wNa-28" value="" style="group" parent="rrxrWV5JKAd1Jxnc8wNa-39" vertex="1" connectable="0">
          <mxGeometry width="88.57093922651934" height="410" as="geometry" />
        </mxCell>
        <mxCell id="mJ_MDuSwQOCXob1QKFZ1-4" value="" style="shape=umlLifeline;participant=umlActor;perimeter=lifelinePerimeter;whiteSpace=wrap;html=1;container=0;collapsible=0;recursiveResize=0;verticalAlign=top;spacingTop=36;outlineConnect=0;fontFamily=Helvetica;fontSize=12;fontColor=default;align=center;strokeColor=default;fillColor=default;size=50;" parent="rrxrWV5JKAd1Jxnc8wNa-28" vertex="1">
          <mxGeometry x="22.142734806629836" y="35.14285714285714" width="44.28546961325967" height="374.8571428571429" as="geometry" />
        </mxCell>
        <mxCell id="BHGGA8FH1MstIcf6RSHf-15" value="Admin" style="text;html=1;align=center;verticalAlign=middle;resizable=0;points=[];autosize=1;strokeColor=none;fillColor=none;container=0;movable=0;rotatable=0;deletable=0;editable=0;connectable=0;" parent="rrxrWV5JKAd1Jxnc8wNa-28" vertex="1">
          <mxGeometry x="13.1" width="60" height="30" as="geometry" />
        </mxCell>
        <mxCell id="rrxrWV5JKAd1Jxnc8wNa-30" value="" style="group" parent="rrxrWV5JKAd1Jxnc8wNa-39" vertex="1" connectable="0">
          <mxGeometry x="190.4290607734807" width="191.90883977900552" height="410" as="geometry" />
        </mxCell>
        <mxCell id="OlgEAX7LOhgStRy0H8mc-7" value=":manageuser.php" style="shape=umlLifeline;perimeter=lifelinePerimeter;whiteSpace=wrap;html=1;container=0;collapsible=0;recursiveResize=0;outlineConnect=0;" parent="rrxrWV5JKAd1Jxnc8wNa-30" vertex="1">
          <mxGeometry width="191.90883977900552" height="409.99999999999994" as="geometry" />
        </mxCell>
        <mxCell id="rrxrWV5JKAd1Jxnc8wNa-29" value="" style="group" parent="rrxrWV5JKAd1Jxnc8wNa-30" vertex="1" connectable="0">
          <mxGeometry x="88.57331066723332" y="84.82758620689654" width="82.66842328941776" height="65.33137931034479" as="geometry" />
        </mxCell>
        <mxCell id="rrxrWV5JKAd1Jxnc8wNa-26" value="" style="html=1;points=[];perimeter=orthogonalPerimeter;container=0;" parent="rrxrWV5JKAd1Jxnc8wNa-29" vertex="1">
          <mxGeometry width="14.762218444538883" height="65.33137931034481" as="geometry" />
        </mxCell>
        <mxCell id="rrxrWV5JKAd1Jxnc8wNa-36" value="" style="html=1;points=[];perimeter=orthogonalPerimeter;container=0;" parent="rrxrWV5JKAd1Jxnc8wNa-30" vertex="1">
          <mxGeometry x="88.57331066723332" y="199.99823275862065" width="14.762218444538883" height="56.551724137931025" as="geometry" />
        </mxCell>
        <mxCell id="rrxrWV5JKAd1Jxnc8wNa-38" value="&quot;User Information Successfully Updated.&quot;" style="html=1;verticalAlign=bottom;endArrow=open;dashed=1;endSize=8;rounded=0;elbow=vertical;" parent="rrxrWV5JKAd1Jxnc8wNa-30" edge="1">
          <mxGeometry x="0.0343" y="23" relative="1" as="geometry">
            <mxPoint x="88.57331066723329" y="256.7199568965517" as="sourcePoint" />
            <mxPoint x="-144.18596685082875" y="257" as="targetPoint" />
            <mxPoint as="offset" />
            <Array as="points">
              <mxPoint x="69.38242668933276" y="256.90862514863255" />
            </Array>
          </mxGeometry>
        </mxCell>
        <UserObject label="&lt;font style=&quot;font-size: 11px;&quot;&gt;redirect to manageaccounts.php&lt;/font&gt;" link="manageaccounts.php" id="GVOSC-DbjQIP4OTKRqhv-2">
          <mxCell style="text;whiteSpace=wrap;html=1;" parent="rrxrWV5JKAd1Jxnc8wNa-30" vertex="1">
            <mxGeometry x="-101.19946695095949" y="234" width="170.60245202558636" height="30" as="geometry" />
          </mxCell>
        </UserObject>
        <mxCell id="rrxrWV5JKAd1Jxnc8wNa-41" value="" style="group" parent="rrxrWV5JKAd1Jxnc8wNa-39" vertex="1" connectable="0">
          <mxGeometry x="282.59668508287297" y="147.44" width="374.7467539637959" height="26.27901477832515" as="geometry" />
        </mxCell>
        <mxCell id="rrxrWV5JKAd1Jxnc8wNa-3" value="manageUser ($pricePlan, $accountStatus, $userid)" style="html=1;verticalAlign=bottom;endArrow=block;rounded=0;exitX=0.86;exitY=0.995;exitDx=0;exitDy=0;exitPerimeter=0;entryX=-0.089;entryY=0.032;entryDx=0;entryDy=0;entryPerimeter=0;" parent="rrxrWV5JKAd1Jxnc8wNa-41" target="rrxrWV5JKAd1Jxnc8wNa-1" edge="1">
          <mxGeometry width="80" relative="1" as="geometry">
            <mxPoint x="15.899511284961434" as="sourcePoint" />
            <mxPoint x="273.6433590321218" y="0.5017317686314969" as="targetPoint" />
          </mxGeometry>
        </mxCell>
        <mxCell id="SvDPnw8TsKHeQt3Mk0bU-1" value="" style="group" vertex="1" connectable="0" parent="1">
          <mxGeometry x="130" y="150" width="930" height="410" as="geometry" />
        </mxCell>
        <mxCell id="SvDPnw8TsKHeQt3Mk0bU-2" value=":user.php" style="shape=umlLifeline;perimeter=lifelinePerimeter;whiteSpace=wrap;html=1;container=0;collapsible=0;recursiveResize=0;outlineConnect=0;" vertex="1" parent="SvDPnw8TsKHeQt3Mk0bU-1">
          <mxGeometry x="622.6409104831015" width="150.56751381215471" height="410" as="geometry" />
        </mxCell>
        <mxCell id="SvDPnw8TsKHeQt3Mk0bU-3" value="$_SESSION[&#39;successStatus&#39;]" style="html=1;verticalAlign=bottom;endArrow=open;dashed=1;endSize=8;rounded=0;elbow=vertical;entryX=1.079;entryY=0.094;entryDx=0;entryDy=0;entryPerimeter=0;exitX=-0.087;exitY=1.029;exitDx=0;exitDy=0;exitPerimeter=0;" edge="1" parent="SvDPnw8TsKHeQt3Mk0bU-1" source="SvDPnw8TsKHeQt3Mk0bU-4" target="SvDPnw8TsKHeQt3Mk0bU-13">
          <mxGeometry x="0.0035" relative="1" as="geometry">
            <mxPoint x="542.585635359116" y="205" as="sourcePoint" />
            <mxPoint x="303.1491712707182" y="205.72000000000003" as="targetPoint" />
            <mxPoint as="offset" />
            <Array as="points">
              <mxPoint x="532.9047619047617" y="205.3523424494649" />
            </Array>
          </mxGeometry>
        </mxCell>
        <mxCell id="SvDPnw8TsKHeQt3Mk0bU-4" value="" style="html=1;points=[];perimeter=orthogonalPerimeter;container=0;" vertex="1" parent="SvDPnw8TsKHeQt3Mk0bU-1">
          <mxGeometry x="690.5401264788918" y="147.43960591132995" width="14.761904761904757" height="55.172413793103445" as="geometry" />
        </mxCell>
        <mxCell id="SvDPnw8TsKHeQt3Mk0bU-5" value="press confirm button" style="html=1;verticalAlign=bottom;endArrow=block;rounded=0;elbow=vertical;entryX=-0.1;entryY=0.007;entryDx=0;entryDy=0;entryPerimeter=0;" edge="1" parent="SvDPnw8TsKHeQt3Mk0bU-1">
          <mxGeometry width="80" relative="1" as="geometry">
            <mxPoint x="77.0718232044199" y="83" as="sourcePoint" />
            <mxPoint x="278.99999999999994" y="82.76195005945307" as="targetPoint" />
            <mxPoint as="offset" />
          </mxGeometry>
        </mxCell>
        <mxCell id="SvDPnw8TsKHeQt3Mk0bU-6" value="" style="group" vertex="1" connectable="0" parent="SvDPnw8TsKHeQt3Mk0bU-1">
          <mxGeometry width="88.57093922651934" height="410" as="geometry" />
        </mxCell>
        <mxCell id="SvDPnw8TsKHeQt3Mk0bU-7" value="" style="shape=umlLifeline;participant=umlActor;perimeter=lifelinePerimeter;whiteSpace=wrap;html=1;container=0;collapsible=0;recursiveResize=0;verticalAlign=top;spacingTop=36;outlineConnect=0;fontFamily=Helvetica;fontSize=12;fontColor=default;align=center;strokeColor=default;fillColor=default;size=50;" vertex="1" parent="SvDPnw8TsKHeQt3Mk0bU-6">
          <mxGeometry x="22.142734806629836" y="35.14285714285714" width="44.28546961325967" height="374.8571428571429" as="geometry" />
        </mxCell>
        <mxCell id="SvDPnw8TsKHeQt3Mk0bU-8" value="Admin" style="text;html=1;align=center;verticalAlign=middle;resizable=0;points=[];autosize=1;strokeColor=none;fillColor=none;container=0;movable=0;rotatable=0;deletable=0;editable=0;connectable=0;" vertex="1" parent="SvDPnw8TsKHeQt3Mk0bU-6">
          <mxGeometry x="13.1" width="60" height="30" as="geometry" />
        </mxCell>
        <mxCell id="SvDPnw8TsKHeQt3Mk0bU-9" value="" style="group" vertex="1" connectable="0" parent="SvDPnw8TsKHeQt3Mk0bU-1">
          <mxGeometry x="190.4290607734807" width="191.90883977900552" height="410" as="geometry" />
        </mxCell>
        <mxCell id="SvDPnw8TsKHeQt3Mk0bU-10" value=":manageuser.php" style="shape=umlLifeline;perimeter=lifelinePerimeter;whiteSpace=wrap;html=1;container=0;collapsible=0;recursiveResize=0;outlineConnect=0;" vertex="1" parent="SvDPnw8TsKHeQt3Mk0bU-9">
          <mxGeometry width="191.90883977900552" height="409.99999999999994" as="geometry" />
        </mxCell>
        <mxCell id="SvDPnw8TsKHeQt3Mk0bU-11" value="" style="group" vertex="1" connectable="0" parent="SvDPnw8TsKHeQt3Mk0bU-9">
          <mxGeometry x="88.57331066723332" y="84.82758620689654" width="82.66842328941776" height="65.33137931034479" as="geometry" />
        </mxCell>
        <mxCell id="SvDPnw8TsKHeQt3Mk0bU-12" value="" style="html=1;points=[];perimeter=orthogonalPerimeter;container=0;" vertex="1" parent="SvDPnw8TsKHeQt3Mk0bU-11">
          <mxGeometry width="14.762218444538883" height="65.33137931034481" as="geometry" />
        </mxCell>
        <mxCell id="SvDPnw8TsKHeQt3Mk0bU-13" value="" style="html=1;points=[];perimeter=orthogonalPerimeter;container=0;" vertex="1" parent="SvDPnw8TsKHeQt3Mk0bU-9">
          <mxGeometry x="88.57331066723332" y="199.99823275862065" width="14.762218444538883" height="56.551724137931025" as="geometry" />
        </mxCell>
        <mxCell id="SvDPnw8TsKHeQt3Mk0bU-14" value="&quot;User Information Successfully Updated.&quot;" style="html=1;verticalAlign=bottom;endArrow=open;dashed=1;endSize=8;rounded=0;elbow=vertical;" edge="1" parent="SvDPnw8TsKHeQt3Mk0bU-9">
          <mxGeometry x="0.0343" y="23" relative="1" as="geometry">
            <mxPoint x="88.57331066723329" y="256.7199568965517" as="sourcePoint" />
            <mxPoint x="-144.18596685082875" y="257" as="targetPoint" />
            <mxPoint as="offset" />
            <Array as="points">
              <mxPoint x="69.38242668933276" y="256.90862514863255" />
            </Array>
          </mxGeometry>
        </mxCell>
        <UserObject label="&lt;font style=&quot;font-size: 11px;&quot;&gt;redirect to manageaccounts.php&lt;/font&gt;" link="manageaccounts.php" id="SvDPnw8TsKHeQt3Mk0bU-15">
          <mxCell style="text;whiteSpace=wrap;html=1;" vertex="1" parent="SvDPnw8TsKHeQt3Mk0bU-9">
            <mxGeometry x="-101.19946695095949" y="234" width="170.60245202558636" height="30" as="geometry" />
          </mxCell>
        </UserObject>
        <mxCell id="SvDPnw8TsKHeQt3Mk0bU-16" value="" style="group" vertex="1" connectable="0" parent="SvDPnw8TsKHeQt3Mk0bU-1">
          <mxGeometry x="282.59668508287297" y="147.44" width="374.7467539637959" height="26.27901477832515" as="geometry" />
        </mxCell>
        <mxCell id="SvDPnw8TsKHeQt3Mk0bU-17" value="manageUser ($pricePlan, $accountStatus, $userid)" style="html=1;verticalAlign=bottom;endArrow=block;rounded=0;exitX=0.86;exitY=0.995;exitDx=0;exitDy=0;exitPerimeter=0;entryX=-0.089;entryY=0.032;entryDx=0;entryDy=0;entryPerimeter=0;" edge="1" parent="SvDPnw8TsKHeQt3Mk0bU-16" target="SvDPnw8TsKHeQt3Mk0bU-4">
          <mxGeometry width="80" relative="1" as="geometry">
            <mxPoint x="15.899511284961434" as="sourcePoint" />
            <mxPoint x="273.6433590321218" y="0.5017317686314969" as="targetPoint" />
          </mxGeometry>
        </mxCell>
      </root>
    </mxGraphModel>
  </diagram>
</mxfile>
